<?xml version="1.0" encoding="UTF-8" standalone="no"?>
<svg
   xmlns:dc="http://purl.org/dc/elements/1.1/"
   xmlns:cc="http://creativecommons.org/ns#"
   xmlns:rdf="http://www.w3.org/1999/02/22-rdf-syntax-ns#"
   xmlns:svg="http://www.w3.org/2000/svg"
   xmlns="http://www.w3.org/2000/svg"
   xmlns:xlink="http://www.w3.org/1999/xlink"
   xmlns:sodipodi="http://sodipodi.sourceforge.net/DTD/sodipodi-0.dtd"
   xmlns:inkscape="http://www.inkscape.org/namespaces/inkscape"
   version="1.0"
   width="114mm"
   height="81mm"
   id="svg2"
   sodipodi:version="0.32"
   inkscape:version="1.0.2-2 (e86c870879, 2021-01-15)"
   sodipodi:docname="pytechfin-logo.svg">
  <metadata
     id="metadata2193">
    <rdf:RDF>
      <cc:Work
         rdf:about="">
        <dc:format>image/svg+xml</dc:format>
        <dc:type
           rdf:resource="http://purl.org/dc/dcmitype/StillImage" />
        <dc:title></dc:title>
      </cc:Work>
    </rdf:RDF>
  </metadata>
  <sodipodi:namedview
     inkscape:window-height="1017"
     inkscape:window-width="1920"
     inkscape:pageshadow="2"
     inkscape:pageopacity="0.0"
     borderopacity="1.0"
     bordercolor="#666666"
     pagecolor="#ffffff"
     id="base"
     inkscape:zoom="1.4340089"
     inkscape:cx="79.182025"
     inkscape:cy="155.09664"
     inkscape:window-x="1912"
     inkscape:window-y="-8"
     inkscape:current-layer="g2303"
     inkscape:document-rotation="0"
     showgrid="false"
     inkscape:window-maximized="1"
     units="mm" />
  <defs
     id="defs4">
    <linearGradient
       inkscape:collect="always"
       id="linearGradient1221">
      <stop
         style="stop-color:#ed9c2e;stop-opacity:1;"
         offset="0"
         id="stop1217" />
      <stop
         style="stop-color:#ed9c2e;stop-opacity:0;"
         offset="1"
         id="stop1219" />
    </linearGradient>
    <linearGradient
       inkscape:collect="always"
       id="linearGradient1197">
      <stop
         style="stop-color:#009caf;stop-opacity:1;"
         offset="0"
         id="stop1193" />
      <stop
         style="stop-color:#009caf;stop-opacity:0;"
         offset="1"
         id="stop1195" />
    </linearGradient>
    <linearGradient
       id="linearGradient2795">
      <stop
         style="stop-color:#b8b8b8;stop-opacity:0.49803922"
         offset="0"
         id="stop2797" />
      <stop
         style="stop-color:#7f7f7f;stop-opacity:0"
         offset="1"
         id="stop2799" />
    </linearGradient>
    <linearGradient
       id="linearGradient2787">
      <stop
         style="stop-color:#7f7f7f;stop-opacity:0.5"
         offset="0"
         id="stop2789" />
      <stop
         style="stop-color:#7f7f7f;stop-opacity:0"
         offset="1"
         id="stop2791" />
    </linearGradient>
    <linearGradient
       id="linearGradient3676">
      <stop
         style="stop-color:#b2b2b2;stop-opacity:0.5"
         offset="0"
         id="stop3678" />
      <stop
         style="stop-color:#b3b3b3;stop-opacity:0"
         offset="1"
         id="stop3680" />
    </linearGradient>
    <linearGradient
       id="linearGradient3236">
      <stop
         style="stop-color:#f4f4f4;stop-opacity:1"
         offset="0"
         id="stop3244" />
      <stop
         style="stop-color:#ffffff;stop-opacity:1"
         offset="1"
         id="stop3240" />
    </linearGradient>
    <linearGradient
       id="linearGradient4671">
      <stop
         style="stop-color:#ffd43b;stop-opacity:1"
         offset="0"
         id="stop4673" />
      <stop
         style="stop-color:#ffe873;stop-opacity:1"
         offset="1"
         id="stop4675" />
    </linearGradient>
    <linearGradient
       id="linearGradient4689">
      <stop
         style="stop-color:#5a9fd4;stop-opacity:1"
         offset="0"
         id="stop4691" />
      <stop
         style="stop-color:#306998;stop-opacity:1"
         offset="1"
         id="stop4693" />
    </linearGradient>
    <linearGradient
       x1="224.23996"
       y1="144.75717"
       x2="-65.308502"
       y2="144.75717"
       id="linearGradient2987"
       xlink:href="#linearGradient4671"
       gradientUnits="userSpaceOnUse"
       gradientTransform="translate(100.2702,99.61116)" />
    <linearGradient
       x1="172.94208"
       y1="77.475983"
       x2="26.670298"
       y2="76.313133"
       id="linearGradient2990"
       xlink:href="#linearGradient4689"
       gradientUnits="userSpaceOnUse"
       gradientTransform="translate(100.2702,99.61116)" />
    <linearGradient
       x1="172.94208"
       y1="77.475983"
       x2="26.670298"
       y2="76.313133"
       id="linearGradient2587"
       xlink:href="#linearGradient4689"
       gradientUnits="userSpaceOnUse"
       gradientTransform="translate(100.2702,99.61116)" />
    <linearGradient
       x1="224.23996"
       y1="144.75717"
       x2="-65.308502"
       y2="144.75717"
       id="linearGradient2589"
       xlink:href="#linearGradient4671"
       gradientUnits="userSpaceOnUse"
       gradientTransform="translate(100.2702,99.61116)" />
    <linearGradient
       x1="172.94208"
       y1="77.475983"
       x2="26.670298"
       y2="76.313133"
       id="linearGradient2248"
       xlink:href="#linearGradient4689"
       gradientUnits="userSpaceOnUse"
       gradientTransform="translate(100.2702,99.61116)" />
    <linearGradient
       x1="224.23996"
       y1="144.75717"
       x2="-65.308502"
       y2="144.75717"
       id="linearGradient2250"
       xlink:href="#linearGradient4671"
       gradientUnits="userSpaceOnUse"
       gradientTransform="translate(100.2702,99.61116)" />
    <linearGradient
       x1="224.23996"
       y1="144.75717"
       x2="-65.308502"
       y2="144.75717"
       id="linearGradient2255"
       xlink:href="#linearGradient4671"
       gradientUnits="userSpaceOnUse"
       gradientTransform="matrix(0.562541,0,0,0.567972,-11.5974,-7.60954)" />
    <linearGradient
       x1="172.94208"
       y1="76.176224"
       x2="26.670298"
       y2="76.313133"
       id="linearGradient2258"
       xlink:href="#linearGradient4689"
       gradientUnits="userSpaceOnUse"
       gradientTransform="matrix(0.562541,0,0,0.567972,-11.5974,-7.60954)" />
    <radialGradient
       cx="61.518883"
       cy="132.28575"
       r="29.036913"
       fx="61.518883"
       fy="132.28575"
       id="radialGradient2801"
       xlink:href="#linearGradient2795"
       gradientUnits="userSpaceOnUse"
       gradientTransform="matrix(1,0,0,0.177966,0,108.7434)" />
    <linearGradient
       x1="150.96111"
       y1="192.35176"
       x2="112.03144"
       y2="137.27299"
       id="linearGradient1475"
       xlink:href="#linearGradient4671"
       gradientUnits="userSpaceOnUse"
       gradientTransform="matrix(0.562541,0,0,0.567972,144.86127,2.2976294)" />
    <linearGradient
       x1="26.648937"
       y1="20.603781"
       x2="135.66525"
       y2="114.39767"
       id="linearGradient1478"
       xlink:href="#linearGradient4689"
       gradientUnits="userSpaceOnUse"
       gradientTransform="matrix(0.562541,0,0,0.567972,144.86127,2.2976294)" />
    <radialGradient
       cx="61.518883"
       cy="132.28575"
       r="29.036913"
       fx="61.518883"
       fy="132.28575"
       id="radialGradient1480"
       xlink:href="#linearGradient2795"
       gradientUnits="userSpaceOnUse"
       gradientTransform="matrix(1.7490565e-8,-0.23994696,1.054668,3.7915457e-7,76.151591,152.46201)" />
    <clipPath
       clipPathUnits="userSpaceOnUse"
       id="clipPath54">
      <g
         inkscape:label="Clip"
         id="use56">
        <path
           id="path889"
           style="fill:url(#linearGradient897);fill-opacity:1"
           d="m 60.510156,6.3979729 c -4.583653,0.021298 -8.960939,0.4122177 -12.8125,1.09375 C 36.35144,9.4962267 34.291407,13.691825 34.291406,21.429223 v 10.21875 h 26.8125 v 3.40625 h -26.8125 -10.0625 c -7.792459,0 -14.6157592,4.683717 -16.7500002,13.59375 -2.46182,10.212966 -2.5710151,16.586023 0,27.25 1.9059283,7.937852 6.4575432,13.593748 14.2500002,13.59375 h 9.21875 v -12.25 c 0,-8.849902 7.657144,-16.656248 16.75,-16.65625 h 26.78125 c 7.454951,0 13.406253,-6.138164 13.40625,-13.625 v -25.53125 c 0,-7.266339 -6.12998,-12.7247775 -13.40625,-13.9375001 -4.605987,-0.7667253 -9.385097,-1.1150483 -13.96875,-1.09375 z m -14.5,8.2187501 c 2.769547,0 5.03125,2.298646 5.03125,5.125 -2e-6,2.816336 -2.261703,5.09375 -5.03125,5.09375 -2.779476,-1e-6 -5.03125,-2.277415 -5.03125,-5.09375 -1e-6,-2.826353 2.251774,-5.125 5.03125,-5.125 z" />
        <path
           id="path891"
           style="fill:url(#linearGradient899);fill-opacity:1"
           d="m 91.228906,35.054223 v 11.90625 c 0,9.230755 -7.825895,16.999999 -16.75,17 h -26.78125 c -7.335833,0 -13.406249,6.278483 -13.40625,13.625 v 25.531247 c 0,7.26634 6.318588,11.54032 13.40625,13.625 8.487331,2.49561 16.626237,2.94663 26.78125,0 6.750155,-1.95439 13.406253,-5.88761 13.40625,-13.625 V 92.897973 h -26.78125 v -3.40625 h 26.78125 13.406254 c 7.79246,0 10.69625,-5.435408 13.40624,-13.59375 2.79933,-8.398886 2.68022,-16.475776 0,-27.25 -1.92578,-7.757441 -5.60387,-13.59375 -13.40624,-13.59375 z m -15.0625,64.65625 c 2.779478,3e-6 5.03125,2.277417 5.03125,5.093747 -2e-6,2.82635 -2.251775,5.125 -5.03125,5.125 -2.76955,0 -5.03125,-2.29865 -5.03125,-5.125 2e-6,-2.81633 2.261697,-5.093747 5.03125,-5.093747 z" />
        <path
           id="path893"
           style="opacity:0.44382;fill:url(#radialGradient901);fill-opacity:1;fill-rule:nonzero;stroke:none;stroke-width:20;stroke-miterlimit:4;stroke-dasharray:none;stroke-opacity:1"
           transform="matrix(0.73406,0,0,0.809524,16.24958,27.00935)"
           d="m 110.46717,132.28575 a 48.948285,8.6066802 0 1 1 -97.896571,0 48.948285,8.6066802 0 1 1 97.896571,0 z" />
      </g>
    </clipPath>
    <clipPath
       clipPathUnits="userSpaceOnUse"
       id="clipPath73">
      <use
         x="0"
         y="0"
         xlink:href="#g69"
         id="use75"
         width="100%"
         height="100%"
         transform="translate(118.72311,-143.32402)" />
    </clipPath>
    <linearGradient
       inkscape:collect="always"
       xlink:href="#linearGradient4689"
       id="linearGradient897"
       gradientUnits="userSpaceOnUse"
       gradientTransform="matrix(0.562541,0,0,0.567972,-9.399749,-5.305317)"
       x1="26.648937"
       y1="20.603781"
       x2="135.66525"
       y2="114.39767" />
    <linearGradient
       inkscape:collect="always"
       xlink:href="#linearGradient4671"
       id="linearGradient899"
       gradientUnits="userSpaceOnUse"
       gradientTransform="matrix(0.562541,0,0,0.567972,-9.399749,-5.305317)"
       x1="150.96111"
       y1="192.35176"
       x2="112.03144"
       y2="137.27299" />
    <radialGradient
       inkscape:collect="always"
       xlink:href="#linearGradient2795"
       id="radialGradient901"
       gradientUnits="userSpaceOnUse"
       gradientTransform="matrix(2.382716e-8,-0.296405,1.43676,4.683673e-7,-128.544,150.5202)"
       cx="61.518883"
       cy="132.28575"
       fx="61.518883"
       fy="132.28575"
       r="29.036913" />
    <linearGradient
       inkscape:collect="always"
       xlink:href="#linearGradient1197"
       id="linearGradient1199"
       x1="209.20372"
       y1="64.853157"
       x2="89.957603"
       y2="-27.196484"
       gradientUnits="userSpaceOnUse" />
    <linearGradient
       inkscape:collect="always"
       xlink:href="#linearGradient1221"
       id="linearGradient1223"
       x1="242.14618"
       y1="100.50092"
       x2="99.023094"
       y2="0.69734573"
       gradientUnits="userSpaceOnUse" />
  </defs>
  <g
     id="g2303">
    <g
       id="g1247"
       transform="translate(1.9275759,41.266906)"
       inkscape:export-xdpi="96"
       inkscape:export-ydpi="96">
      <g
         inkscape:label="Clip"
         id="g69"
         transform="translate(-118.72311,143.32402)">
        <g
           id="g1191"
           transform="translate(-4.1840745,-76.010686)">
          <text
             xml:space="preserve"
             style="font-style:normal;font-weight:normal;font-size:80px;line-height:1.25;font-family:sans-serif;fill:#646464;fill-opacity:1;stroke:none"
             x="140.21161"
             y="123.97459"
             id="text60"><tspan
               sodipodi:role="line"
               id="tspan58"
               x="140.21161"
               y="123.97459"
               style="font-style:normal;font-variant:normal;font-weight:500;font-stretch:normal;font-size:80px;font-family:Flux;-inkscape-font-specification:'Flux Medium'">py</tspan></text>
          <g
             id="g1172"
             transform="translate(175.03378,-77.323879)">
            <g
               id="g48"
               transform="matrix(1.3333333,0,0,-1.3333333,79.532915,172.8546)">
              <path
                 d="M 0,0 C 0,-0.232 -0.088,-0.424 -0.266,-0.575 -0.444,-0.725 -0.649,-0.8 -0.881,-0.8 l -6.809,-0.004 0.012,-24.445 c 0,-0.246 -0.082,-0.448 -0.246,-0.605 -0.164,-0.157 -0.363,-0.236 -0.595,-0.236 l -5.496,-0.003 c -0.233,0 -0.431,0.082 -0.595,0.246 -0.164,0.164 -0.246,0.362 -0.246,0.595 l -0.012,24.445 -6.849,-0.003 c -0.219,-0.001 -0.414,0.078 -0.585,0.235 -0.171,0.158 -0.256,0.346 -0.257,0.564 l -0.002,4.327 c 0,0.219 0.086,0.407 0.257,0.564 0.17,0.158 0.365,0.236 0.584,0.237 l 20.836,0.009 c 0.232,0 0.437,-0.075 0.615,-0.225 0.178,-0.151 0.267,-0.341 0.267,-0.574 z"
                 style="fill:#009caf;fill-opacity:1;fill-rule:nonzero;stroke:none"
                 id="path50" />
            </g>
            <g
               id="g52"
               transform="matrix(1.3333333,0,0,-1.3333333,123.31091,206.2166)">
              <path
                 d="m 0,0 c 0,-0.506 -0.28,-0.8 -0.84,-0.882 -0.998,-0.137 -2.119,-0.261 -3.363,-0.371 -1.244,-0.11 -2.837,-0.165 -4.778,-0.166 -1.504,-10e-4 -2.851,0.125 -4.041,0.377 -1.189,0.253 -2.249,0.7 -3.179,1.342 -0.93,0.642 -1.662,1.565 -2.196,2.768 -0.534,1.203 -0.801,2.713 -0.802,4.532 l -0.006,13.945 c -0.002,2.406 0.453,4.272 1.361,5.599 0.908,1.327 2.108,2.223 3.598,2.689 1.49,0.465 3.253,0.698 5.29,0.699 1.942,0.001 3.579,-0.056 4.912,-0.172 1.333,-0.115 2.396,-0.241 3.19,-0.378 0.56,-0.082 0.84,-0.355 0.84,-0.82 l 0.002,-3.917 c 0,-0.232 -0.081,-0.431 -0.245,-0.595 -0.164,-0.164 -0.363,-0.246 -0.595,-0.246 L -9.383,24.4 c -0.998,-10e-4 -1.696,-0.206 -2.092,-0.616 -0.396,-0.41 -0.594,-1.156 -0.593,-2.236 l 10e-4,-3.835 10.89,0.005 c 0.232,0 0.43,-0.081 0.595,-0.245 0.164,-0.164 0.246,-0.363 0.246,-0.595 l 0.002,-3.979 c 0,-0.232 -0.089,-0.43 -0.266,-0.594 -0.178,-0.164 -0.369,-0.247 -0.574,-0.247 l -10.89,-0.005 0.002,-4.45 c 0,-1.066 0.199,-1.808 0.596,-2.225 0.397,-0.417 1.094,-0.625 2.092,-0.625 l 8.531,0.005 c 0.233,0 0.431,-0.082 0.595,-0.246 0.164,-0.164 0.246,-0.363 0.247,-0.595 z"
                 style="fill:#009caf;fill-opacity:1;fill-rule:nonzero;stroke:none"
                 id="path54" />
            </g>
            <g
               id="g56"
               transform="matrix(1.3333333,0,0,-1.3333333,169.09598,205.8618)">
              <path
                 d="m 0,0 c 0,-0.26 -0.064,-0.455 -0.194,-0.585 -0.13,-0.13 -0.373,-0.256 -0.728,-0.379 -1.422,-0.466 -3.507,-0.7 -6.255,-0.701 -1.695,-10e-4 -3.271,0.235 -4.727,0.706 -1.456,0.471 -2.766,1.226 -3.929,2.264 -1.162,1.038 -2.082,2.432 -2.76,4.182 -0.678,1.75 -1.017,3.814 -1.018,6.193 l -0.002,5.291 c -0.001,2.393 0.336,4.457 1.012,6.194 0.676,1.736 1.598,3.128 2.767,4.174 1.168,1.047 2.477,1.8 3.926,2.258 1.449,0.459 3.021,0.689 4.716,0.69 1.354,0 2.629,-0.078 3.825,-0.235 1.196,-0.156 2.007,-0.317 2.43,-0.48 0.616,-0.164 0.923,-0.471 0.924,-0.923 l 0.002,-4.06 c 0,-0.561 -0.281,-0.841 -0.841,-0.841 h -0.082 c -1.408,0.108 -2.502,0.189 -3.281,0.244 -0.78,0.054 -1.757,0.081 -2.933,0.081 -1.053,-0.001 -1.962,-0.213 -2.727,-0.637 -0.766,-0.425 -1.37,-1.16 -1.814,-2.206 -0.444,-1.046 -0.665,-2.464 -0.665,-4.255 l 0.003,-5.291 c 0.001,-1.791 0.224,-3.21 0.668,-4.256 0.445,-1.045 1.051,-1.78 1.816,-2.203 0.766,-0.424 1.676,-0.635 2.728,-0.635 0.383,0 0.91,0.014 1.579,0.042 0.67,0.028 1.255,0.055 1.754,0.083 0.499,0.027 1.056,0.065 1.671,0.114 0.615,0.047 1.018,0.079 1.21,0.092 h 0.082 c 0.56,0 0.841,-0.279 0.841,-0.84 z"
                 style="fill:#009caf;fill-opacity:1;fill-rule:nonzero;stroke:none"
                 id="path58" />
            </g>
            <g
               id="g60"
               transform="matrix(1.3333333,0,0,-1.3333333,221.82771,206.43407)">
              <path
                 d="m 0,0 c 0,-0.232 -0.089,-0.431 -0.267,-0.595 -0.177,-0.164 -0.369,-0.246 -0.574,-0.246 l -5.516,-0.003 c -0.205,0 -0.397,0.082 -0.575,0.246 -0.177,0.164 -0.266,0.362 -0.266,0.595 l -0.006,12.14 -10.357,-0.005 0.006,-12.14 c 0,-0.233 -0.089,-0.431 -0.266,-0.595 -0.178,-0.164 -0.369,-0.247 -0.575,-0.247 l -5.516,-0.002 c -0.205,0 -0.397,0.082 -0.574,0.246 -0.178,0.164 -0.267,0.362 -0.267,0.594 l -0.014,29.573 c 0,0.218 0.085,0.406 0.256,0.564 0.171,0.157 0.365,0.236 0.584,0.236 l 5.517,0.002 c 0.219,0 0.413,-0.078 0.585,-0.235 0.171,-0.157 0.256,-0.345 0.256,-0.564 l 0.006,-11.177 10.356,0.005 -0.005,11.177 c 0,0.219 0.085,0.407 0.256,0.564 0.17,0.157 0.365,0.236 0.584,0.236 l 5.517,0.003 c 0.218,0 0.413,-0.079 0.584,-0.236 0.171,-0.157 0.257,-0.345 0.257,-0.564 z"
                 style="fill:#009caf;fill-opacity:1;fill-rule:nonzero;stroke:none"
                 id="path62" />
            </g>
            <g
               id="g64"
               transform="matrix(1.3333333,0,0,-1.3333333,268.58171,172.52847)">
              <path
                 d="M 0,0 C 0,-0.246 -0.082,-0.448 -0.246,-0.605 -0.41,-0.762 -0.608,-0.841 -0.84,-0.841 l -8.532,-0.004 c -0.998,-0.001 -1.695,-0.206 -2.091,-0.616 -0.396,-0.411 -0.594,-1.156 -0.594,-2.236 l 0.002,-3.794 10.889,0.005 c 0.233,0 0.431,-0.082 0.596,-0.246 0.164,-0.164 0.246,-0.362 0.246,-0.594 l 0.002,-3.979 c 0,-0.232 -0.089,-0.431 -0.266,-0.595 -0.178,-0.164 -0.37,-0.246 -0.575,-0.246 l -10.889,-0.005 0.006,-12.264 c 0,-0.246 -0.082,-0.448 -0.246,-0.605 -0.165,-0.157 -0.363,-0.236 -0.595,-0.236 l -5.455,-0.003 c -0.205,0 -0.397,0.082 -0.575,0.246 -0.177,0.164 -0.266,0.362 -0.266,0.595 l -0.01,21.717 c -0.002,2.407 0.452,4.273 1.36,5.6 0.909,1.327 2.108,2.223 3.599,2.688 1.489,0.466 3.253,0.699 5.29,0.7 1.942,0.001 3.579,-0.057 4.912,-0.172 1.333,-0.116 2.396,-0.242 3.189,-0.378 0.561,-0.082 0.841,-0.362 0.841,-0.841 z"
                 style="fill:#009caf;fill-opacity:1;fill-rule:nonzero;stroke:none"
                 id="path66" />
            </g>
            <g
               id="g68"
               transform="matrix(1.3333333,0,0,-1.3333333,298.82517,206.38847)">
              <path
                 d="M 0,0 C 0,-0.246 -0.079,-0.448 -0.236,-0.605 -0.393,-0.762 -0.581,-0.841 -0.8,-0.841 l -5.639,-0.003 c -0.206,0 -0.383,0.082 -0.534,0.246 -0.15,0.164 -0.225,0.362 -0.225,0.595 l -0.014,29.572 c 0,0.219 0.071,0.407 0.215,0.564 0.143,0.157 0.324,0.236 0.543,0.236 l 5.64,0.003 c 0.232,0 0.423,-0.075 0.574,-0.226 0.151,-0.15 0.226,-0.341 0.226,-0.574 z"
                 style="fill:#009caf;fill-opacity:1;fill-rule:nonzero;stroke:none"
                 id="path70" />
            </g>
            <g
               id="g72"
               transform="matrix(1.3333333,0,0,-1.3333333,352.53997,206.35847)">
              <path
                 d="M 0,0 C 0,-0.246 -0.079,-0.448 -0.236,-0.605 -0.393,-0.762 -0.581,-0.841 -0.8,-0.841 l -5.619,-0.003 c -0.232,0 -0.417,0.082 -0.554,0.246 -0.136,0.164 -0.205,0.362 -0.205,0.595 L -7.187,18.72 c 0,1.559 -0.175,2.759 -0.524,3.599 -0.35,0.841 -0.883,1.425 -1.601,1.753 -0.718,0.327 -1.678,0.491 -2.881,0.49 -1.969,0 -3.603,-0.083 -4.902,-0.248 l 0.012,-24.322 c 0,-0.246 -0.079,-0.448 -0.236,-0.605 -0.157,-0.158 -0.345,-0.236 -0.564,-0.236 l -5.598,-0.003 c -0.219,0 -0.407,0.079 -0.564,0.236 -0.158,0.157 -0.236,0.359 -0.236,0.605 l -0.013,27.419 c -0.001,0.929 0.149,1.565 0.45,1.907 0.301,0.342 0.868,0.575 1.702,0.698 0.355,0.055 1.183,0.151 2.481,0.288 1.299,0.137 2.574,0.244 3.825,0.32 1.251,0.076 2.197,0.114 2.84,0.114 2.912,0.001 5.305,-0.332 7.178,-1.002 1.874,-0.669 3.31,-1.884 4.309,-3.648 0.998,-1.763 1.499,-4.217 1.5,-7.361 z"
                 style="fill:#009caf;fill-opacity:1;fill-rule:nonzero;stroke:none"
                 id="path74" />
            </g>
          </g>
        </g>
      </g>
      <path
         id="path1948"
         style="fill:url(#linearGradient1199);fill-opacity:1"
         d="m 214.77118,14.000919 c -4.58366,0.0213 -8.96094,0.412218 -12.8125,1.09375 -11.34622,2.004504 -13.40625,6.200102 -13.40625,13.9375 v 10.21875 h 26.8125 v 3.40625 h -26.8125 -10.0625 c -7.79246,0 -14.61576,4.683717 -16.75,13.59375 -2.46182,10.212966 -2.57102,16.586023 0,27.25 1.90592,7.937852 6.45754,13.593748 14.25,13.59375 h 9.21875 v -12.25 c 0,-8.849902 7.65714,-16.656248 16.75,-16.65625 h 26.78125 c 7.45495,0 13.40625,-6.138164 13.40625,-13.625 v -25.53125 c 0,-7.266339 -6.12998,-12.724777 -13.40625,-13.9375 -4.60599,-0.766725 -9.3851,-1.115048 -13.96875,-1.09375 z m -14.5,8.21875 c 2.76954,0 5.03125,2.298646 5.03125,5.125 -10e-6,2.816336 -2.26171,5.09375 -5.03125,5.09375 -2.77948,-1e-6 -5.03125,-2.277415 -5.03125,-5.09375 -10e-6,-2.826353 2.25177,-5.125 5.03125,-5.125 z" />
      <path
         id="path1950"
         style="fill:url(#linearGradient1223);fill-opacity:1"
         d="m 245.48993,42.657169 v 11.90625 c 0,9.230755 -7.8259,16.999999 -16.75,17 h -26.78125 c -7.33584,0 -13.40625,6.278483 -13.40625,13.625 v 25.531251 c 0,7.26634 6.31858,11.54032 13.40625,13.625 8.48733,2.49561 16.62623,2.94663 26.78125,0 6.75015,-1.95439 13.40625,-5.88761 13.40625,-13.625 v -10.21875 h -26.78125 v -3.406251 h 26.78125 13.40625 c 7.79246,0 10.69625,-5.435408 13.40624,-13.59375 2.79933,-8.398886 2.68022,-16.475776 0,-27.25 -1.92578,-7.757441 -5.60387,-13.59375 -13.40624,-13.59375 z m -15.0625,64.656251 c 2.77947,0 5.03125,2.27742 5.03125,5.09375 -10e-6,2.82635 -2.25178,5.125 -5.03125,5.125 -2.76955,0 -5.03125,-2.29865 -5.03125,-5.125 0,-2.81633 2.26169,-5.09375 5.03125,-5.09375 z" />
      <path
         id="path1894"
         style="opacity:0.44382;fill:url(#radialGradient1480);fill-opacity:1;fill-rule:nonzero;stroke:none;stroke-width:15.4174;stroke-miterlimit:4;stroke-dasharray:none;stroke-opacity:1"
         d="m 251.60013,137.70079 a 35.93098,6.9673145 0 1 1 -71.86196,0 35.93098,6.9673145 0 1 1 71.86196,0 z" />
    </g>
  </g>
</svg>
